<svg xmlns="http://www.w3.org/2000/svg" xmlns:xlink="http://www.w3.org/1999/xlink" width="500" zoomAndPan="magnify" viewBox="0 0 375 374.999991" height="500" preserveAspectRatio="xMidYMid meet" version="1.0"><defs><g/><clipPath id="8c0215f57e"><path d="M 48.0625 44.429688 L 326.8125 44.429688 L 326.8125 220.5 L 48.0625 220.5 Z M 48.0625 44.429688 " clip-rule="nonzero"/></clipPath><clipPath id="76cb089a22"><path d="M 146.332031 61.164062 L 248.507812 61.164062 L 248.507812 163.339844 L 146.332031 163.339844 Z M 146.332031 61.164062 " clip-rule="nonzero"/></clipPath><clipPath id="7658b3addd"><path d="M 248.507812 112.253906 L 197.417969 61.164062 L 197.417969 86.707031 L 146.332031 86.707031 L 146.332031 137.796875 L 197.417969 137.796875 L 197.417969 163.339844 L 248.507812 112.253906 " clip-rule="nonzero"/></clipPath><clipPath id="7c4d195701"><path d="M 86.46875 112.824219 L 187.5 112.824219 L 187.5 213.859375 L 86.46875 213.859375 Z M 86.46875 112.824219 " clip-rule="nonzero"/></clipPath><clipPath id="4acc20065c"><path d="M 86.46875 163.339844 L 136.984375 112.824219 L 136.984375 138.082031 L 187.5 138.082031 L 187.5 188.597656 L 136.984375 188.597656 L 136.984375 213.859375 L 86.46875 163.339844 " clip-rule="nonzero"/></clipPath></defs><g clip-path="url(#8c0215f57e)"><path fill="#d9d9d9" d="M 136.023438 56.136719 C 152.53125 56.136719 167.71875 61.546875 180.207031 70.496094 C 164.03125 86.226562 153.890625 108.152344 153.890625 132.457031 C 153.890625 156.761719 164.03125 178.675781 180.222656 194.421875 C 167.71875 203.367188 152.53125 208.761719 136.023438 208.761719 C 93.972656 208.761719 59.777344 174.539062 59.777344 132.457031 C 59.777344 90.375 93.972656 56.136719 136.023438 56.136719 Z M 136.023438 220.5 C 156.175781 220.5 174.527344 213.414062 189.375 201.976562 C 203.722656 212.539062 221.242188 218.980469 240.363281 218.980469 C 288.035156 218.980469 326.828125 180.164062 326.828125 132.457031 C 326.828125 84.75 288.035156 45.917969 240.363281 45.917969 C 221.242188 45.917969 203.722656 52.375 189.375 62.921875 C 174.527344 51.484375 156.175781 44.414062 136.023438 44.414062 C 87.523438 44.414062 48.0625 83.90625 48.0625 132.457031 C 48.0625 181.007812 87.523438 220.5 136.023438 220.5 " fill-opacity="1" fill-rule="nonzero"/></g><g clip-path="url(#76cb089a22)"><g clip-path="url(#7658b3addd)"><path fill="#000000" d="M 146.332031 61.164062 L 248.507812 61.164062 L 248.507812 163.339844 L 146.332031 163.339844 Z M 146.332031 61.164062 " fill-opacity="1" fill-rule="nonzero"/></g></g><g clip-path="url(#7c4d195701)"><g clip-path="url(#4acc20065c)"><path fill="#d9d9d9" d="M 86.46875 112.824219 L 187.5 112.824219 L 187.5 213.859375 L 86.46875 213.859375 Z M 86.46875 112.824219 " fill-opacity="1" fill-rule="nonzero"/></g></g><g fill="#ffffff" fill-opacity="1"><g transform="translate(9.721191, 314.712355)"><g><path d="M 25.15625 -27.40625 L 25.15625 0 L 13.328125 0 L 13.328125 -27.40625 L 1.234375 -27.40625 L 1.234375 -36.8125 L 37.1875 -36.8125 L 37.1875 -27.40625 Z M 25.15625 -27.40625 "/></g></g></g><g fill="#ffffff" fill-opacity="1"><g transform="translate(91.163119, 314.712355)"><g><path d="M 17.828125 -28.90625 C 22.992188 -28.90625 26.941406 -27.691406 29.671875 -25.265625 C 32.398438 -22.835938 33.765625 -19.125 33.765625 -14.125 L 33.765625 -12.3125 L 12.578125 -12.3125 C 12.578125 -10.28125 13.03125 -8.742188 13.9375 -7.703125 C 14.851562 -6.671875 16.289062 -6.15625 18.25 -6.15625 C 20.03125 -6.15625 21.335938 -6.53125 22.171875 -7.28125 C 23.015625 -8.03125 23.4375 -9.03125 23.4375 -10.28125 L 33.765625 -10.28125 C 33.765625 -6.851562 32.460938 -4.175781 29.859375 -2.25 C 27.253906 -0.320312 23.457031 0.640625 18.46875 0.640625 C 13.21875 0.640625 9.144531 -0.578125 6.25 -3.015625 C 3.363281 -5.460938 1.921875 -9.164062 1.921875 -14.125 C 1.921875 -18.976562 3.328125 -22.65625 6.140625 -25.15625 C 8.960938 -27.65625 12.859375 -28.90625 17.828125 -28.90625 Z M 18.25 -22.109375 C 14.894531 -22.109375 13.019531 -20.519531 12.625 -17.34375 L 23.015625 -17.34375 C 23.015625 -18.800781 22.59375 -19.957031 21.75 -20.8125 C 20.914062 -21.675781 19.75 -22.109375 18.25 -22.109375 Z M 18.25 -22.109375 "/></g></g></g><g fill="#ffffff" fill-opacity="1"><g transform="translate(169.66265, 314.712355)"><g><path d="M 22.6875 -28.90625 C 25.96875 -28.90625 28.425781 -27.992188 30.0625 -26.171875 C 31.707031 -24.347656 32.53125 -21.722656 32.53125 -18.296875 L 32.53125 0 L 21.890625 0 L 21.890625 -17.015625 C 21.890625 -18.234375 21.578125 -19.207031 20.953125 -19.9375 C 20.328125 -20.664062 19.441406 -21.03125 18.296875 -21.03125 C 16.984375 -21.03125 15.914062 -20.601562 15.09375 -19.75 C 14.269531 -18.894531 13.859375 -17.84375 13.859375 -16.59375 L 13.859375 0 L 3.21875 0 L 3.21875 -28.25 L 11.9375 -28.25 L 12.625 -23.96875 C 13.726562 -25.46875 15.179688 -26.664062 16.984375 -27.5625 C 18.785156 -28.457031 20.6875 -28.90625 22.6875 -28.90625 Z M 22.6875 -28.90625 "/></g></g></g><g fill="#ffffff" fill-opacity="1"><g transform="translate(248.16218, 314.712355)"><g><path d="M 17.828125 -28.90625 C 22.992188 -28.90625 26.941406 -27.691406 29.671875 -25.265625 C 32.398438 -22.835938 33.765625 -19.125 33.765625 -14.125 L 33.765625 -12.3125 L 12.578125 -12.3125 C 12.578125 -10.28125 13.03125 -8.742188 13.9375 -7.703125 C 14.851562 -6.671875 16.289062 -6.15625 18.25 -6.15625 C 20.03125 -6.15625 21.335938 -6.53125 22.171875 -7.28125 C 23.015625 -8.03125 23.4375 -9.03125 23.4375 -10.28125 L 33.765625 -10.28125 C 33.765625 -6.851562 32.460938 -4.175781 29.859375 -2.25 C 27.253906 -0.320312 23.457031 0.640625 18.46875 0.640625 C 13.21875 0.640625 9.144531 -0.578125 6.25 -3.015625 C 3.363281 -5.460938 1.921875 -9.164062 1.921875 -14.125 C 1.921875 -18.976562 3.328125 -22.65625 6.140625 -25.15625 C 8.960938 -27.65625 12.859375 -28.90625 17.828125 -28.90625 Z M 18.25 -22.109375 C 14.894531 -22.109375 13.019531 -20.519531 12.625 -17.34375 L 23.015625 -17.34375 C 23.015625 -18.800781 22.59375 -19.957031 21.75 -20.8125 C 20.914062 -21.675781 19.75 -22.109375 18.25 -22.109375 Z M 18.25 -22.109375 "/></g></g></g><g fill="#ffffff" fill-opacity="1"><g transform="translate(326.661711, 314.712355)"><g><path d="M 25.15625 -27.40625 L 25.15625 0 L 13.328125 0 L 13.328125 -27.40625 L 1.234375 -27.40625 L 1.234375 -36.8125 L 37.1875 -36.8125 L 37.1875 -27.40625 Z M 25.15625 -27.40625 "/></g></g></g></svg>